<svg id="Capa_1" data-name="Capa 1" xmlns="http://www.w3.org/2000/svg" viewBox="0 0 595.28 841.89"><title>alien</title><path d="M302.39,637.75l6.11-38.1c-5.37.54-9.35.65-13.17,1.5-1.33.3-2.32,2.39-3.34,3.75-5,6.61-9.71,13.39-14.91,19.81-1.43,1.76-4.12,2.5-7.22,4.28,3.19-9.77,9-17.61,8-27.67-4.71-.7-9.26-1.58-13.85-1.92-1.38-.1-3.07,1.06-4.28,2-5.29,4.32-10.33,9-15.73,13.13-3.71,2.87-7.87,5.16-11.82,7.71l-.78-1L248.87,595c-5-1.66-8.53-3.14-12.19-3.87-1.41-.28-3.3.91-4.72,1.81-7.72,4.9-15.25,10.12-23.1,14.8-2.85,1.7-6.4,2.24-10,2.48l22-23.67c-4.63-3.33-8.21-3.3-12.87-2.22-10.65,2.46-21.59,3.69-32.44,5.23A8.78,8.78,0,0,1,170,588l29.2-10.66v-1.54c-4.22-2.81-8.33-5.79-12.72-8.29-1.11-.63-3.1.18-4.66.46-7,1.29-14,2.8-21,3.85-2.08.31-4.34-.63-7.94-1.25L174.56,556c-4.23-3.76-7.34-6.74-10.71-9.4-1-.78-2.68-.86-4.06-1-8.7-.57-17.41-1-26.12-1.55l-.2-2,19.54-7.2c-1.4-4.51-3.89-6.36-7.84-6.72-6.77-.62-13.51-1.48-21.75-2.41l19.33-7.54c-2.43-5.19-4.43-9.93-6.9-14.41-.71-1.28-2.67-2.25-4.23-2.62-7.35-1.73-14.32-4-20.16-10.43l18.56-1c-1.23-6.05-2.22-10.59-8.08-13.41-7-3.34-13.4-8-16.41-16.72l18.36,7.74c-1.14-6.2-1.78-10.74-2.9-15.16-.28-1.12-2-2-3.17-2.75-3.94-2.55-7.94-5-11.92-7.48l.67-1.66,12.85,1.8c-.13-10.2-10.79-10.79-14.68-17.92l14,3.84c-.57-8.13-.33-15.79-1.86-23.07-1.37-6.49-10-9.15-15.79-5.9-.68.38-1.39.69-3.26,1.61,1.67-4.09,2.71-7.18,4.15-10.08,15.51-31.24,19-64.57,17.54-98.83-.44-10.31-.44-20.65-.52-31a13.41,13.41,0,0,1,1.42-5.64c12.88,47.65,22.89,95.79,31.42,144.45-4.51-.29-8.28-.9-12-.69-4.6.27-7.74,2.51-8.12,7.72-.42,5.74-1.21,11.44-2,18.39l11.14-8.21c-2,8.58-10.47,13.59-11.2,23.82l10.8-7.33,1.23.67c-2.05,3.3-3.58,7.15-6.27,9.79-5.56,5.46-4.16,11.27-2,18.78l10-15.45,1.5.44c-2,7.72-3.57,15.62-6.26,23.11-1.77,4.93-2.35,9.21,1.11,14.6l8-16c.52,2.23,1,3.26.93,4.22-.7,6.79-.92,13.71-2.51,20.3-1.36,5.65-.18,10,3.84,15.11l8.23-13.71c1.1,10.44-2.83,21.24,2.47,31l1.85.13L167,508.72l1.18-.11c1,7.37,2.2,14.73,2.86,22.13.72,8.12,1,9,9.34,14.81l2.33-23.22c1.29,4.06,2.19,6.8,3,9.55,2,6.52,4.38,13,6,19.59,1.7,7.12,7.77,8.73,12.57,12l1.48-.59-3-28.64,1.14-.4a15.52,15.52,0,0,1,1.82,2.9c3.58,10,7.24,20.05,10.53,30.19,1.28,4,3.87,5.43,8.32,6.21L222.27,542l1.69-.41c.59,1.16,1.27,2.28,1.76,3.49,3.78,9.42,7.8,18.75,11.18,28.31,2.31,6.53,7.06,8.64,13.43,9.41,2.19-10.49-.72-20.53-2.73-30.62l1.71-.47c.69,1.13,1.44,2.23,2.07,3.39,5.39,10,10.79,19.9,16.11,29.88,2.43,4.56,6.59,3.55,12,3.74l-5.81-30.45,1.76-.68,8.95,14.48,17.22-7.61L296,549.15l1.63-1c1.92,2.48,3.9,4.92,5.75,7.44,5,6.87,6.41,7.22,13.18,2.28,2.86-2.09,6.68-4.33,7.53-7.24.79-2.69-1.82-6.37-2.38-10l6.15,7.43c7.63-6.54,8.43-9.1,3.53-16.28A51.36,51.36,0,0,0,320.13,520c-17.5-13.29-35.61-25.8-52.83-39.43-7.89-6.24-14.26-14.4-21.3-21.7-1.13-1.17-2.13-2.46-3.36-3.88l-3.87,5c-1-3.9,5-7.9-1.57-11l-6.1,10-1.35-.46,4-15.29c-5.2,2.65-10.5,15.68-10.92,26.69l-1.42-.13c.52-5.61.47-11.34,1.72-16.78,1.32-5.74,3.87-11.2,5.89-16.79-7-.83-20.47,17.26-25.86,35.35,0-5.56-.36-10,.1-14.33s1.72-8.39,2.71-12.91a10.75,10.75,0,0,0-7.68,9c-1.25,7.34-1.77,14.8-2.49,22.22-.16,1.63.15,3.3-.13,5-4.3-7.63-4-15.84-3.13-24.26A28.61,28.61,0,0,0,188,475.39c-2-5.12-4.15-10.34-2.32-15.93,1.38-4.23,2.85-8.77,5.53-12.18,9.35-11.9,19-23.59,29-34.94,8.43-9.55,19.38-14.06,32.22-14.9,8.94-.58,17.78-2.61,26.68-3.88C294,391.44,303.4,382.83,309,368.1c-6.43,1.18-12.35,2.32-18.29,3.33-5.24.89-10.51,2.3-15.76,2.31-15.6,0-22-6.4-23.53-23.91-4.66,2.13-9,3.77-13.06,6.06-6.19,3.53-12.17,7.42-18.1,11.36a4,4,0,0,0-1.27,3.5c3.26,10.14,2.4,20.06-1.13,29.9-1.83,5.11-3.7,10.21-5.5,15.17l-14.86-8.42c1.79-2.61,3.7-4.19,3.95-6,.7-5.06.71-10.22,1-15.58-8.79,3.2-16,13.67-13.74,19.32l-.86,1.17c-5.59-4.22-12-7.7-16.64-12.78-22.28-24.23-25-52.41-13.38-81.92,12.38-31.41,33.79-55.94,61.84-74.73,14.27-9.56,28.33-19.44,44.58-25.48C279,205.92,294,201.17,310,203.75c8.94,1.44,16.85,5.47,22.63,12.61,7.49,9.24,6.76,20.43-1.47,29-8.85,9.2-19.9,15-31.5,19.77-14.86,6.15-29.39,12.75-40.16,25.36l-2.58,3,9.5,4.57c14.51-11.75,31.92-15.56,49.78-16.84,12.64-.91,22.68-6.21,31.58-14.27,14.35-13,21.43-30.24,27.31-48.12,1.29-3.92,2.86-7.74,4-10.87l16.55,3.76c-9.95,22.2-23.93,43.57-26.41,70.59,3.85-1.81,7.14-3.06,10.14-4.81,12.33-7.18,21.39-18,30.47-28.6,6.7-7.85,12.87-16.16,19.3-24.24,1.33-1.67,2.77-3.26,4.5-5.29,1.45,4.23,3,7.87,3.83,11.65.28,1.23-1,3-1.93,4.27-9.44,12.8-18,26.12-22.71,41.44-1.89,6.12-2.86,12.53-4.43,19.63,11.51-.32,20.09-5.7,28.63-10.47s16.4-10.69,24.6-16.13c0,4.63.14,9.63-.11,14.61-.05,1-1.44,2.12-2.4,3-7.5,6.56-15.05,13.07-22.94,19.89,15.06,6.25,22.46,18.76,27.82,32.56,1.82,4.68,4.4,6.6,8.82,7.39,8.37,1.5,11.51,9.5,6.54,16.17-1.57,2.11-2.74,4.52-4.58,7.61,3.56,1.78,6.74,3.39,9.93,5,4.31,2.15,6.55,13.82,2.85,16.64-10.45,8-6.76,14.15,2.41,20.74,4.3,3.09,5.87,6.1,6,10.86.08,3-.24,5.08-3,7.16-6.08,4.59-7.71,14.32-3.3,20.55,4.6,6.5.7,12.84.58,19.23,0,.9-2.1,1.88-3.33,2.63-9.6,5.84-10.91,11.65-5,21.08.81,1.29,1.33,3.7.67,4.82-3,5.07-6.4,9.86-9.65,14.72-12.3-8-11.83-6.41-18.3,3a224.82,224.82,0,0,1-16,19.84,8.55,8.55,0,0,0-2.28,8c1.93,11.13,3.43,22.34,5.1,33.51l-1.89.54-11.86-30.3c-4.81,1.92-5,4.73-4.34,9,1.6,9.82,2.36,19.78,3.28,29.71.16,1.74-.53,3.57-.83,5.39l-13-32.53c-6.31,4.35-12,8.05-17.33,12.18-.9.69-.77,3.31-.44,4.9a80.25,80.25,0,0,1-1,37.63,14.52,14.52,0,0,1-2.05,4.65c-2-13.66-3-27.46-8.92-40.08-7,2.8-13.63,5.35-20.13,8.21-1,.43-1.66,2.25-1.92,3.54-2.43,12-4.54,24.16-7.19,36.15-.75,3.42-2.94,6.53-4.47,9.78l-1.58-.27-1.58-44.47c-7.53,1.53-13.58,2.57-19.5,4.11-1.31.34-2.48,2.3-3.18,3.77-4.27,9-8.1,18.22-12.68,27.05C309.19,631.12,305.82,633.81,302.39,637.75Zm-4.28-224.84v.84c1.88.36,3.77.64,5.62,1.09,11.64,2.8,23.81,4.29,34.77,8.76,16.75,6.83,34,7.06,51.46,7.65,1.85.06,4.39-1.46,5.54-3,4.47-6.06,6.17-13.09,6.45-20.61.72-19.53-7-36.4-15.86-51.79-8.11,6.61-16.28,13.8-25,20.17-4.23,3.08-8,6-10.7,10.67-6.7,11.61-17,18.42-30,21.24-2.76.6-5.54,1.15-8.3,1.77C307.42,410.73,302.77,411.83,298.11,412.91ZM310,239.83c-41.69,5.74-94.83,54.76-101.7,94C234.86,293.71,267.45,261.34,310,239.83Zm86.77,284.28c3.1-4.36,3.22-4.52-.22-7.33q-19.89-16.27-39.93-32.34a42.7,42.7,0,0,0-4.88-2.86c5,8.26,9.71,15.33,13.68,22.79,4.44,8.35,8,17.16,12.36,25.58,2.15,4.19,5.12,8,7.83,12.08,4-4.23,4.2-4.37,1.71-8.19-4.35-6.69-9-13.22-13.53-19.76-1.45-2.06-3.16-3.93-4.75-5.89l.94-1C380.4,510.37,388.56,517.35,396.82,524.11ZM217.46,250.4c-23.12,11.3-52.16,50.61-53.71,75.23C169.34,309.71,176.9,296,187,284S208.06,260.69,217.46,250.4ZM426.5,499c16.1-4.1,26-24.53,22.64-45.71-2.33-14.53-15.2-28.22-27.69-27.59,16.25,7,25.26,17.88,25.48,34.82C447.15,477.08,440,489.65,426.5,499ZM286.71,575.4c6.28,13.65,9.63,15.2,20.27,9.66a66.86,66.86,0,0,0-1.85-8.53c-.38-1.12-2.13-2.57-3.2-2.53C297,574.19,292.13,574.85,286.71,575.4Zm59.87-44.74a7.77,7.77,0,0,0,.26-1.89c-.38-1.27-.83-2.52-1.25-3.79-5.79-17.45-17.06-30.56-31.87-41.08-16.61-11.8-33.88-23.07-42.26-43.09A48.24,48.24,0,0,0,286,464.14a269.21,269.21,0,0,0,25.26,20.3c15.45,10.85,27.16,24.39,33.52,42.32C345.13,527.84,345.71,528.84,346.57,530.66Zm-29.5-30,.64-1.07c-3.08-1.74-6.12-3.56-9.26-5.19-7.53-3.91-15.21-7.54-22.65-11.61a65.67,65.67,0,0,1-30.47-35,16.06,16.06,0,0,0-1.52-2.26c1.1,7.34,6.8,17.54,13.11,24.62C280.59,485.5,299.64,491.74,317.07,500.7Zm38.81,12.06c-5.35-9.13-10.77-16.8-14.52-25.21s-5.7-17.38-8.44-26.11C334.78,480.73,341.71,497.73,355.88,512.77Zm57.71-96.07c5.86-14.07,7.72-28.91,7.58-44.12ZM364.4,343c19-6.38,30.48-17.83,31.79-29.48-3.45,4.82-7,11.63-12.26,16.63S371.59,338.42,364.4,343Zm-22.74-16.45c5.83-11-1-30.4-12.37-36.87C338.6,299.85,344,311.38,341.65,326.58Zm-55.15-28.9c16.11,4.62,18.73,12.11,15.27,26,3.22-5.3,4.59-10.83,1.37-16.68C299.55,300.5,293.91,297.41,286.5,297.68ZM322,324.95c7.88-12.53.64-28.63-13.66-30.46C321,301,327.71,310.09,322,324.95Zm36.49-8c4.67-9.41.1-22.71-9.77-27.6C356.21,297.05,359.85,306.06,358.47,316.95Zm-92.55,26.92c-3.78,7.25-1.87,13.63,4.32,15.28a36.47,36.47,0,0,0,20.57-.84c-3-.17-5.93.15-8.89.25a60.32,60.32,0,0,1-8.93-.12c-5.94-.7-8.71-4.47-7.91-10.34C265.22,347,265.5,346,265.92,343.87Zm-14.39-40.19-1.46-.92-12.61,16.53,1,.73C243.33,315,249.64,311,251.53,303.68ZM412.43,393h1.06V365.29h-1.06Zm12.6,18c4.59-7.86,7.1-19.67,5.7-24.74Zm-249-29,1.85-.25-3.09-21.61-1.78.26Z"/></svg>