<svg id="Layer_1" data-name="Layer 1" xmlns="http://www.w3.org/2000/svg" viewBox="0 0 240.39 226.41"><defs><style>.cls-1{fill:#ea8e10;}.cls-2{fill:#231f20;}.cls-3{fill:#f5a909;}.cls-4{fill:#12100b;}.cls-4,.cls-7{stroke:#4d4947;}.cls-10,.cls-4{stroke-width:6px;}.cls-5{fill:#d0d0d0;stroke-width:4px;}.cls-5,.cls-6{stroke:#231f20;}.cls-6,.cls-8{fill:#fff;}.cls-6{stroke-width:2px;}.cls-10,.cls-7{fill:none;}.cls-7{stroke-width:5px;}.cls-9{fill:#10b1e7;opacity:0.54;}.cls-10{stroke:#13110c;}.cls-11{fill:#e30613;stroke:#dd1215;stroke-width:0.23px;}</style></defs><title>bus_predator</title><path class="cls-1" d="M168,16.67a344,344,0,0,0-49.38-3.21,355.33,355.33,0,0,0-46.23,2.76V40.46H36.65v93.13H203.79V40.91H168V16.67Z"/><path class="cls-2" d="M168,47.87V16.77c18.29,3.17,30.14,8.17,30.14,13.81a5.72,5.72,0,0,1,5.63,5.8V47.87Z"/><path class="cls-2" d="M72.41,47.37V16.27c-18.29,3.17-30.14,8.17-30.14,13.81a5.72,5.72,0,0,0-5.63,5.8V47.37Z"/><path class="cls-3" d="M213.1,132.78c-4.23-4.22-12.78-4.51-19.15-8.11-25.55-14.45-43.26-19-73.16-19h-1.14c-29.9,0-47.61,4.58-73.16,19-6.37,3.6-14.92,3.89-19.15,8.11-12,12-4.39,38-4.39,38A1.24,1.24,0,0,0,24.19,172H216.25a1.24,1.24,0,0,0,1.24-1.25S225.14,144.82,213.1,132.78Z"/><path class="cls-3" d="M143.33,14.19c0-2.86-9.3-9.33-23.24-9.33s-23,6.47-23,9.33"/><path class="cls-2" d="M216,172H24.43c-.73,0-1.31.83-1.31,1.86l3.52,8.5c0,1.08.56,2,1.25,2h13.4v26.13A1.48,1.48,0,0,0,42.69,212H81.94a1.48,1.48,0,0,0,1.39-1.55V194.13h72.94v16.33a1.48,1.48,0,0,0,1.4,1.55h39.84a1.48,1.48,0,0,0,1.4-1.55V184.33h13.63c.7,0,1.27-.89,1.27-2l3.52-8.5C217.32,172.83,216.73,172,216,172Z"/><path class="cls-4" d="M162.68,155.44a7.06,7.06,0,0,1-7.06,7.06H84.82a7.06,7.06,0,0,1-7.06-7.06V128.88a7.06,7.06,0,0,1,7.06-7.07h70.79a7.06,7.06,0,0,1,7.06,7.07v26.56Z"/><path class="cls-5" d="M213.37,147.78a15.25,15.25,0,1,1-15.26-15.25A15.25,15.25,0,0,1,213.37,147.78Z"/><path class="cls-6" d="M207.56,147.78a9.44,9.44,0,1,1-9.44-9.44A9.44,9.44,0,0,1,207.56,147.78Z"/><path class="cls-5" d="M57.57,147.78a15.25,15.25,0,1,1-15.26-15.25A15.25,15.25,0,0,1,57.57,147.78Z"/><path class="cls-6" d="M51.76,147.78a9.44,9.44,0,1,1-9.44-9.44A9.44,9.44,0,0,1,51.76,147.78Z"/><line class="cls-7" x1="79.83" y1="138.49" x2="160.61" y2="138.49"/><line class="cls-7" x1="79.83" y1="130.11" x2="160.61" y2="130.11"/><line class="cls-7" x1="79.83" y1="146.87" x2="160.61" y2="146.87"/><line class="cls-7" x1="79.83" y1="155.25" x2="160.61" y2="155.25"/><path class="cls-8" d="M114.77,91.79A1.25,1.25,0,0,1,113.52,93H42.81a1.25,1.25,0,0,1-1.25-1.25V57.37a1.25,1.25,0,0,1,1.25-1.25h70.71a1.25,1.25,0,0,1,1.24,1.25Z"/><path class="cls-8" d="M197.21,91.79A1.25,1.25,0,0,1,196,93H125.26A1.25,1.25,0,0,1,124,91.79V57.37a1.25,1.25,0,0,1,1.25-1.25H196a1.25,1.25,0,0,1,1.24,1.25Z"/><path class="cls-9" d="M197.37,91.79A1.25,1.25,0,0,1,196.13,93h-70.7a1.26,1.26,0,0,1-1.26-1.25V57.37a1.26,1.26,0,0,1,1.26-1.25h70.7a1.25,1.25,0,0,1,1.24,1.25Z"/><path class="cls-9" d="M114.77,91.79A1.25,1.25,0,0,1,113.52,93H42.82a1.26,1.26,0,0,1-1.26-1.25V57.37a1.26,1.26,0,0,1,1.26-1.25h70.7a1.25,1.25,0,0,1,1.24,1.25Z"/><path class="cls-2" d="M28.25,86.56A1.24,1.24,0,0,1,27,87.8H10.2A1.25,1.25,0,0,1,9,86.56v-24a1.25,1.25,0,0,1,1.25-1.24H27a1.23,1.23,0,0,1,1.24,1.24Z"/><path class="cls-10" d="M18.6,87.8c0,5.76,8,10.42,17.89,10.42"/><path class="cls-2" d="M212.14,86.56a1.25,1.25,0,0,0,1.24,1.24H230.2a1.25,1.25,0,0,0,1.24-1.24v-24a1.25,1.25,0,0,0-1.24-1.24H213.38a1.25,1.25,0,0,0-1.24,1.24Z"/><path class="cls-10" d="M221.79,87.8c0,5.76-8,10.42-17.88,10.42"/><path class="cls-11" d="M173.45,34.68A10.6,10.6,0,1,0,184,24.09,10.59,10.59,0,0,0,173.45,34.68Z"/><path class="cls-11" d="M44.56,34.68a10.6,10.6,0,1,0,10.58-10.6A10.59,10.59,0,0,0,44.56,34.68Z"/><path d="M122.7,32v1.41h-6.19V32Z"/><path d="M146.51,92.36l-.67-.05a3.63,3.63,0,0,1,0-.65.5.5,0,0,1,.23-.33c.89-.4,1.82-.7,2.66-1.17a13.41,13.41,0,0,0,1.77-1.36c0-.05,0-.11,0-.16l.08.1-.08.07a4.4,4.4,0,0,0,0,.65,2.34,2.34,0,0,1-1,2.2,9.12,9.12,0,0,1-2.61,1.43h.8A15,15,0,0,0,149.43,92a7.75,7.75,0,0,0,1.18-1.35c.06-.07.15-.18.22-.18.93.07,1.86.15,2.78.26a1.9,1.9,0,0,1,.55.27c.09.17.28.35.26.51a4.23,4.23,0,0,1-.25,1.19c0,.12-.11.23-.16.35h.38l.1-.18c.16-.29.38-.56.59-.85l.24.3.2.25c-.08-.18-.13-.32-.17-.42-.1-.33,0-.41.42-.76l-.46.18-.17-.45a1,1,0,0,1-.36,1,2.43,2.43,0,0,1,0-.45,1.28,1.28,0,0,0-.25-1c-.11-.16,0-.48,0-.72,0,0,.19,0,.28-.06a1,1,0,0,1-.12-.2.49.49,0,0,1,0-.47,4,4,0,0,1,.44-.51l-.31.18-.13-.1.69-1.66.18-.06.24.38a.73.73,0,0,1,.24-1.06l1.35-1a6.93,6.93,0,0,1,.3,1,.62.62,0,0,1-.2.4c-.22.24-.46.46-.7.69l.48-.33c-.32.91.35,1.95-.38,2.84l-.23-.31-.29,1.08.37-.49a.88.88,0,0,1,.13.2c.21.46-.09.94,0,1.38l.53-2.85c.11-.6.37-.72,1-.43a21.58,21.58,0,0,0-.73,4.51h.08a1.86,1.86,0,0,1,.38-1.13l-.3.16c.16-.91.29-1.76.47-2.6,0-.2.25-.37.42-.62l.41,2.12c-.06-.56-.14-1.13-.19-1.7a1.73,1.73,0,0,1,.12-.51h0c-.36-.05-.25-.33-.23-.53.06-.56.14-1.13.25-1.68,0-.15.18-.28.28-.43l.2,0c.12.56.24,1.13.35,1.69a2.09,2.09,0,0,0,0,.31c.11.28,0,.37-.28.41a1.4,1.4,0,0,0-.32.09h0l-.29.11h0c.92-.22,1.08-.22,1.06.52,0,.11,0,.23,0,.36,0,.67-.16,1.34-.23,2a.86.86,0,0,1-.35,0,.48.48,0,0,1-.26-.23,1.26,1.26,0,0,1-.14-.4c0,.25,0,.45-.21.55a.66.66,0,0,1-.24.07c-.12,0-.22.14-.32.22l.68-.14a3.43,3.43,0,0,1,0,.7,5.24,5.24,0,0,1-.2.68h0a3.33,3.33,0,0,0,.25-.54,5.41,5.41,0,0,0,.14-.85c.43.07.59.24.44.63a4.91,4.91,0,0,1-.34.76h.34c0-.08.09-.16.13-.25a7.52,7.52,0,0,0,.66-3.72c0-.24,0-.48-.07-.72h0a9.46,9.46,0,0,0-.59-2.47,4,4,0,0,0-.44-.76c-.14-.18,0-.6.06-.91-.13.54-.3,1.08-.38,1.62-.15,1-.19,1-1.23.78l.27-2.24a.79.79,0,0,1-.07.21.77.77,0,0,1-.28.3l-.2.11a5.12,5.12,0,0,0-3.27,4.39,4.07,4.07,0,0,1-.06.41c-.11.59-.27.7-.86.66-.76-.05-1.51-.11-2.27-.13-.35,0-.46-.16-.48-.5a9.1,9.1,0,0,1,1.58-5.09c.18-.31.39-.61.6-.91,0,0,.09-.07.19-.14a3.85,3.85,0,0,1-.51,2.2,5.76,5.76,0,0,0-1.07,2.77c-.09.63,0,.73.61.74h1.08c.41-.88.79-1.72,1.2-2.56.08-.16.17-.32.26-.47l.23-.38a7.06,7.06,0,0,0-.63.85c-.15.27-.28.38-.62.17.12-.81.21-1.65.4-2.48a1.7,1.7,0,0,1,.55-.76c.5-.46,1-.88,1.63-1.37.07.2.08.25.1.31l.24.53a2.16,2.16,0,0,0,.35-.48c.14-.37.14-.83.65-.94h.07l.44.6.3-.67a.19.19,0,0,1,.13-.1,14.47,14.47,0,0,1-.3,2.74c.14-.63.29-1.26.42-1.9.07-.31.11-.62.17-.92,1-.19,1.26.09,1,.92l.55-.84.25-1.39h.18a4.18,4.18,0,0,1,0,.47,32.52,32.52,0,0,0-.32,6c0,.52.06,1,.09,1.57a2.26,2.26,0,0,1,.24.43c.14.47.25.94.38,1.42-.17-1-.38-1.9-.52-2.86a17.72,17.72,0,0,1,.27-5.74c.08.48.16,1,.24,1.43.12.7.29,1.4.36,2.1s0,1.57.09,2.35c0,.59.11,1.18.19,1.76a1.4,1.4,0,0,0,.16.36,13.22,13.22,0,0,1-.28-3.49l.29.21c-.28-1.36-.57-2.73-.82-4.1-.11-.62-.14-1.26-.21-1.95l1,0c0,.7,0,1.38.1,2.05.16,1.26.37,2.52.56,3.77,0,.27.09.54.12.81,0,.08-.05.16-.08.24s-.22,0-.26-.12a6.24,6.24,0,0,1-.32-.6,1.48,1.48,0,0,0,.13.52,1.8,1.8,0,0,0,.46.34c.07-.15.21-.31.18-.45-.11-.67-.3-1.33-.4-2-.15-1-.25-2-.38-3a1,1,0,0,1,1,.61c.16.37.35.73.53,1.09-.11-.31-.22-.62-.34-.92s-.27-.61-.37-.93-.25-.9-.38-1.39l.67-.22.13.38,1,3a3.19,3.19,0,0,1,.14.52c0,.09-.05.18-.08.27s-.21,0-.27-.1-.32-.43-.47-.65a2.73,2.73,0,0,0,.31.64c.11.13.34.17.51.26a1.43,1.43,0,0,0,.12-.52,7.35,7.35,0,0,1-.2-.92l.73,1.35c.06.11.1.24.19.31a6.32,6.32,0,0,0,.63.36l.2-.65c.36.2.76.4,1.14.64s.52.37.78.55.32.4.05.66a1,1,0,0,0-.16.21l-.13.24.26-.31a2.8,2.8,0,0,1,.28-.29,3.13,3.13,0,0,1,.55-.32l.07.1-.32.44a1.49,1.49,0,0,0,1.08-.77c.26-.45,1.26-.84,1.65-.53a2,2,0,0,0,1.22.39,3.72,3.72,0,0,1,.65.17l-.8,1c-.07.09-.17.2-.16.29.09.7-.45.94-.88,1.25-.06,0-.28-.05-.35-.14a1.28,1.28,0,0,0-1.93-.31l.53-.19,0,.48,1.11-.2c-.28.73-.45.84-1.14.77l-1.74-.22,0-.13.91-.8-.2-.11.4-.28-1.43.32,0-.29a.79.79,0,0,0,.39,1.38,9.2,9.2,0,0,0,1.93.28,3.23,3.23,0,0,0,1.05-.4,3.79,3.79,0,0,1,1.07,3.43c0,.14.15.29.12.41a6,6,0,0,1-.27.9h.3l0-.06a4.83,4.83,0,0,1,.23-.47h.12c0,.17.05.35.07.52h.41a.93.93,0,0,1,.53-.81l.32.81h.23l-.27-.92.57.15h0a4.74,4.74,0,0,1-.61-.54.85.85,0,0,1-.07-1c0-.1.1-.2.15-.3h0a3.2,3.2,0,0,0-.35.64c-.1.34-.12.72-.63.64s-.53-.39-.64-.7a4.25,4.25,0,0,1-.3-1.08,1.18,1.18,0,0,1,.22-.79c.11-.13.23-.25.35-.37l-.13,0-.4-.87.12-.12a3,3,0,0,1,.66.49c0,.06-.13.3-.22.48.37-.39.76-.77,1.15-1.16,0,.06.06.21.11.35a2,2,0,0,0,.22.53,1.19,1.19,0,0,1-.12,1.86.36.36,0,0,0-.05.12l0,0h0a1.31,1.31,0,0,0,.29-.18,1,1,0,0,0,.21-.24,1.2,1.2,0,0,0,.16-.68l.41.13a3.49,3.49,0,0,1-1-1.78,1.88,1.88,0,0,0-.28-.47l-.53.81h-.13c0-.35,0-.71.07-1.06,0,0,.15-.07.23-.09.38-.07.77-.15,1.16-.2a.75.75,0,0,1,.37.06c.14.06.25.2.38.24.68.19.8.68.82,1.31a14.66,14.66,0,0,0,.28,1.79l-.63-.25-.57-.23.4.24a3.51,3.51,0,0,0,.42.22c.25.11.31.23.21.49s-.2.66-.3,1-.17.64-.28,1l-1.16-.34c.23.1.46.22.69.29s.52.24.57.48h.13V93l.19.08H176a.87.87,0,0,1-.41-.53,2.66,2.66,0,0,1,.21-.95c.12-.4.24-.8.39-1.26l2.14.78a.76.76,0,0,1,.47.81l.08-.44.87.2h0l-1-3.31-.27-.85.25,1.38-1.85-.74c.46.23.9.49,1.37.68.78.32.79.34.67,1.17-.06.38-.09.76-.14,1.15l-2.17-.77c-.11,0-.26-.12-.28-.21-.18-.81-.33-1.62-.52-2.55l.62.25a1.64,1.64,0,0,1-.68-1.28,1,1,0,0,1,.62-1c.11,0,.25,0,.38.08l0,0h0c-.36-.48.18-.53.4-.83l.82,1.24-.1.13-1.12-.54h0l.15.11a3,3,0,0,0,.74.44.87.87,0,0,1,.66.8,2.51,2.51,0,0,0,.18.5c-.18-1.44-.36-2.89-.55-4.33,0-.33.06-.46.4-.5.89-.1.89-.11,1,.74.15,1.36.26,2.72.47,4.07s.58,2.76.82,4.15a11.24,11.24,0,0,1,.16,1.42h.08c0-.1,0-.2,0-.3s0-.18,0-.31l.38.13h0c-.76-.74-.47-1.76-.82-2.68.88.29,1.37,1.57,1.2,2.91l-.38-.23h0a1.17,1.17,0,0,1,.31.48h.4a.72.72,0,0,1,.18-.35v.35h.28a3.73,3.73,0,0,0,0-.42l.15.42h.11c-.09-.73-.18-1.47-.32-2.2-.31-1.62.32-3.17.37-4.77l.16,1.3h.06l-.13-1.63.91,0,.16.93h.07c0-1,0-2.06-.14-3.08,0-.37-.35-.71-.45-1.08a1.29,1.29,0,0,1,.07-1.17c.14-.21,0-.59,0-.88.49-.2.55-.16.6.3l.36,4c.67.25,1.46.08,2,.73s.84,1.12,1.25,1.68l-.1.07c-.78-.25-1.55-.51-2.34-.73a.74.74,0,0,1-.6-.86.34.34,0,0,0-.1-.26l.11,1.26a1.83,1.83,0,0,1,.47,0c1.2.21,1.7,1.15,2.15,2.13.13.3.24.61.35.89l-2.08-.5c.18.17.52.36.61.63a19.6,19.6,0,0,1,.48,2l-.12,0-.25-.22a1.88,1.88,0,0,1,.37,1.49h.23a10.54,10.54,0,0,0-.14-2.43c-.06-.3-.14-.6-.23-1l1.52.62.12-.11L187,87.52l1,.44.13-.12-1.29-2.51,1,.31c-.14-.32-.2-.5-.3-.67a8.69,8.69,0,0,0-2.61-2.56,1,1,0,0,1-.49-.84c0-.75,0-1.51,0-2.26,0-.37-.24-.72-.29-1.09-.17-1.26-.31-2.53-.46-3.8-.09-.8-.23-1.6-.27-2.4,0-.4.2-.82-.13-1.2a.32.32,0,0,1,0-.3.57.57,0,0,0,0-.78.75.75,0,0,1-.1-.43,6.91,6.91,0,0,0-.81-3,1.93,1.93,0,0,1-.18-1.36,4.92,4.92,0,0,0-2.14-4.66,14.28,14.28,0,0,0-1.53-.71c-.83-.34-1.68-.61-2.49-1a9.94,9.94,0,0,0-4.85-1,27.17,27.17,0,0,0-3.45.55,8.62,8.62,0,0,0-4.16,1.69,2.67,2.67,0,0,0-1.28,2.54,5.12,5.12,0,0,1-.6,2.39c-.35.5-.54,1.13-1.15,1.43-.06,0-.05.17-.1.24a4.48,4.48,0,0,1-.57.86c-.21.21-.37.37-.25.69a.53.53,0,0,1-.06.41q-1.14,1.89-2.31,3.76a1.39,1.39,0,0,1-.32.3c-.23.19-.53.32-.67.55-.36.59-.59,1.25-1,1.82a9.36,9.36,0,0,1-1.94,2.59.43.43,0,0,0-.16.31c0,.37-.2.52-.49.6s-.53.09-.79.16a2.23,2.23,0,0,1-2.52-.65c-.29-.35-.67-.24-.77.21-.15.7-.23,1.42-.36,2.21a2,2,0,0,1-2.14-.37c-.16-.12-.33-.23-.5-.34a1.42,1.42,0,0,0-.39,1.29c.17.57.44,1.12.65,1.68.05.13.11.33.05.43-.34.57-.7,1.13-1.09,1.67a1.22,1.22,0,0,1-1.62.49,1.59,1.59,0,0,0-.42,0c0,.16,0,.36,0,.46A5.67,5.67,0,0,0,144,86.75a1.4,1.4,0,0,1,.67,1.64,2,2,0,0,0-.06.54c.12.85-.4,1.23-1.06,1.55a1.46,1.46,0,0,0-.32.3c.12.1.22.27.35.3.49.12,1,.19,1.47.28s.59.29.48.7a1.86,1.86,0,0,1-.38.7,2.91,2.91,0,0,1-.32.3h.36A8.72,8.72,0,0,1,146.51,92.36Zm11.74-5.48c.82,0,.9.16.65.94l-.17.53-1.41-.07a5.36,5.36,0,0,1,.28-1.16C157.67,87,158,86.86,158.25,86.87Zm13.56,2.27c-.57-.62-.6-.78-.18-1C171.71,88.45,172.1,88.69,171.8,89.14ZM179,90s0,0,.16-.17l.45,1.61c-.6,0-.75-.09-.71-.59C178.9,90.57,178.94,90.29,179,90Zm8.1-5c-.78-.11-1.45-.19-2.11-.3a.57.57,0,0,1-.57-.65,11.27,11.27,0,0,0-.17-1.55A8.14,8.14,0,0,1,187.07,85Zm-34.34.73.12.05v1.13l-.73-.06Zm-.5,1.28c.27.06.66,0,.77.49l-1-.18,0-.12C152,87.17,152.16,87,152.24,87Zm1.37.82c-.11.28-.17.46-.25.64s-.17.68-.34.74a3.29,3.29,0,0,1-1.21,0c-.08,0-.23-.22-.21-.33,0-.48.14-.95.23-1.49Zm.34-3.83c-.18.89-.28,1.8-.44,2.7a4.52,4.52,0,0,1-.22.66h-.19a8.52,8.52,0,0,1-.1-1.17,18.12,18.12,0,0,1,.24-2.81,29.49,29.49,0,0,1,1-3.2c.12-.36.43-.34.72-.2s.15.34.05.55c-.19.43-.34.87-.5,1.31a5.58,5.58,0,0,1,.29-.56c.22-.33.49-.64.68-1a10.13,10.13,0,0,0,.47-1.07c.08-.19.16-.39.23-.58.16-.48.5-.48.93-.37-.14.53-.32,1-.41,1.55a1.9,1.9,0,0,1-1.1,1.69,5.2,5.2,0,0,0-1,.72h-.09c0-.14,0-.27,0-.41C154.31,82.57,154.09,83.29,153.94,84Zm.38-4.35a6,6,0,0,1,.4-.76c.21-.3.52-.25.82-.13s.31.37.22.64-.18.47-.26.69Zm1.55,2.83c-.58.43-1.12.9-1.81,1.46a3.52,3.52,0,0,1,.32-1.25,4.81,4.81,0,0,1,1.92-1.41A1,1,0,0,1,155.87,82.51Zm.66.51a12.87,12.87,0,0,1,.95-5.4C157.81,79.53,157,81.24,156.53,83Zm.6-1.22c0-.37,0-.74.43-.94C157.76,81.58,157.75,81.61,157.13,81.8Zm.46-5.28c.08-.49.12-1,.25-1.55s.49-.29.77-.28c.59,0,.72.21.64.77-.05.37-.13.73-.19,1Zm.56,5.2c0,.16-.06.32-.09.48h-.14a5.8,5.8,0,0,1-.1-.69c0-1.41-.1-2.81-.1-4.22,0-.59.24-.77.69-.65a.35.35,0,0,1,.2.26C158.47,78.5,158.31,80.11,158.15,81.71Zm2-.35L158.51,81c.1-.4.2-.82.32-1.22a.31.31,0,0,1,.26-.15,6.92,6.92,0,0,1,1.11.19.44.44,0,0,1,.23.37A11.57,11.57,0,0,1,160.14,81.36Zm-1.48-2-.14-.11v-.67l.1-.08c.12.13.34.26.34.38S158.77,79.21,158.66,79.37Zm1.74.3-1.55-.17A1.69,1.69,0,0,1,160.4,79.67Zm0-.24-1.29-.25.91-4.76c-.18.71-.37,1.42-.53,2.14s-.25,1.24-.38,1.9l-.6-.15c.08-.43.16-.86.25-1.28,0-.07.07-.16.13-.17.4-.08.35-.4.37-.68a9.32,9.32,0,0,1,1.56-4.54l-.08.53h0l.19-.15A39,39,0,0,1,160.37,79.43Zm1-12.12a4.83,4.83,0,0,1,.81.28l-.62,1.68-1.24-.4c.19-.45.37-.93.6-1.39A.52.52,0,0,1,161.35,67.32Zm0-.21a5.32,5.32,0,0,1,1.75-2.55l.7.87c-.49.64-1,1.24-1.43,1.84a.35.35,0,0,1-.29.1A6.86,6.86,0,0,1,161.32,67.11Zm1.34,2.75V70l-1.22-.09v-.17Zm-.18.31a.44.44,0,0,1,.22.36c0,.4-.1.8-.17,1.25l-1.36-.17.18-1.6A10.45,10.45,0,0,1,162.48,70.17Zm.12,1.77,0,.21-1.48-.22,0-.2Zm-1.43.47c0-.24.14-.31.36-.28l.23,0c.71.1.71.11.64.83l-.11,1.08a5.08,5.08,0,0,0,.16-.65c.1-.85.27-1.68.33-2.53a6,6,0,0,1,.78-2.76h0c-.16.25-.34.48-.47.74s-.22.53-.34.85l-1.09-.12a6.47,6.47,0,0,1,.93-2.47,8.26,8.26,0,0,1,1.09-1.27.38.38,0,0,1,.35-.08.56.56,0,0,1,.17.38,7.83,7.83,0,0,1,0,1.08.84.84,0,0,1-.2.38c-.13.18-.28.34-.43.5l0,0h0l.59-.44c.38.45.47.9.2,1.2a6.17,6.17,0,0,0-1.54,4c-.11,1.59,0,3.19,0,4.78,0,.1,0,.21,0,.34l-.77.18.25-2.86c-.08.46-.17.91-.24,1.38,0,.3,0,.61-.06.91-.07.59-.13.63-.74.62-.29,0-.43-.13-.41-.41C160.93,76,161.05,74.19,161.17,72.41Zm2.46,5.32a1.68,1.68,0,0,1-.47.09c-.1,0-.26-.13-.26-.2,0-1.78-.4-3.58.32-5.32a5,5,0,0,1,.47-.89c0,.66.38,1.25.07,2a4.57,4.57,0,0,0-.27,1.73C163.49,76,163.58,76.83,163.63,77.73ZM164,73.1h.16a4.37,4.37,0,0,1,0,.87c-.12.59-.3,1.16-.46,1.74A4.43,4.43,0,0,1,164,73.1Zm-.89-.86a4,4,0,0,1,1.39-3Zm-2.22,7.88a.5.5,0,0,1-.25-.29,2.29,2.29,0,0,1-.08-.72c.08-1-.07-.83.84-.83.49,0,.62.11.66.6,0,.17,0,.33,0,.5C162.09,80.18,161.64,80.47,160.89,80.12Zm1.68,1.42c-.63-.11-.72-.34-.42-1.17Zm-.3-1.56c-.2-1.42-.13-1.46.64-1.52l.28,1.2Zm.8-1.54a.58.58,0,0,1,.27-.47c.24-.07.57-.12.67.25s.16.69.24,1l-1,.24A7.1,7.1,0,0,1,163.06,78.44Zm1.3.88c0-.07,0-.16,0-.25s0-.19,0-.3l1.84,2.54-.17,0c.76.55,1.51,1.12,2.29,1.63a2.52,2.52,0,0,0,1,.24c.81.13,1.62.22,2.43.34a4.91,4.91,0,0,0,3.78-1.33c.46-.34.87-.74,1.38-1.06a3,3,0,0,1-.54.7,23.42,23.42,0,0,1-2.76,1.81,4.58,4.58,0,0,1-3.29.2,8.87,8.87,0,0,1-5.86-3.26,2.26,2.26,0,0,1-.28-.81l.11-.05.78.72C164.53,79.88,164.4,79.73,164.36,79.32ZM165.59,85a2.21,2.21,0,0,1-.49-.45,14.61,14.61,0,0,1-1.74-4.08.66.66,0,0,1,0-.4,4.07,4.07,0,0,1,.43-.56,4.09,4.09,0,0,1,.3.54q.74,2,1.45,4c.1.28.15.59.23.88Zm3.36.46a5.17,5.17,0,0,1-2.59-1.27l3.17.93C169.47,85.45,169.25,85.52,169,85.47Zm3.18-.28a4,4,0,0,1-.77-.18,6.32,6.32,0,0,0-.95-.12,4.32,4.32,0,0,1-1,0c-1.18-.33-2.34-.72-3.51-1.09-.5-.16-.65-.58-.77-1.08l.81.34h0a2.79,2.79,0,0,0-.3-.23,2.08,2.08,0,0,1-1.1-1.75c.06,0,.13,0,.16.07a7.86,7.86,0,0,0,4,2.37,16.4,16.4,0,0,0,2.7.62,5.23,5.23,0,0,0,3.58-1.1c.66-.45,1.26-1,2-1.44a3.12,3.12,0,0,1-.44.76,7.06,7.06,0,0,1-5,2.25A11.5,11.5,0,0,1,167,83.48c-.34-.15-.7-.27-1.06-.4,1.06.43,2.12.88,3.19,1.28a7.15,7.15,0,0,0,2.81.4,5.81,5.81,0,0,0,2.43-.69,6.7,6.7,0,0,0,2.47-1.89l.12.05a1.74,1.74,0,0,1-.15.46A6.28,6.28,0,0,1,173.29,85,4.2,4.2,0,0,1,172.13,85.19Zm1.25.59a5.24,5.24,0,0,0,2.21-1,2.27,2.27,0,0,0,.2-.22h0c-.47.27-.93.57-1.42.79a1.44,1.44,0,0,1-1.67,0A7.55,7.55,0,0,0,177,82.78a.69.69,0,0,1-.23.89c-.31.31-.64.58-1,.87h0l.91-.63c.14-.1.27-.23.42-.35.25.89-3,2.86-4.37,2.54A3.64,3.64,0,0,1,173.38,85.78ZM172.6,88a.67.67,0,0,1-.36-1,.27.27,0,0,1,.24-.08c.08,0,.19.12.19.19C172.67,87.43,172.63,87.72,172.6,88Zm1.93-1.42,1-.49.08,1.12Zm-2.15,0c.13-.07.25-.21.38-.21a6,6,0,0,0,4.09-2l.27-.24a.37.37,0,0,1,.13,0C177.23,85.33,174.12,87,172.39,86.61ZM178,85.09c0,.21,0,.43.06.65l-.12,0a8.39,8.39,0,0,1-.31-1c-.2-1.15-.37-2.3-.56-3.45-.07-.43.18-.66.44-.9l.16,0a5.66,5.66,0,0,0-.12.8,10.38,10.38,0,0,0,.07,1.4C177.7,83.47,177.85,84.28,178,85.09Zm0-2.48c-.07,0-.21,0-.21,0a5,5,0,0,1-.18-1c0-.13.18-.33.33-.4a3.94,3.94,0,0,1,.79-.21c.49-.11.57-.06.6.42,0,.33,0,.66,0,1Zm.51-5.87h.15l.25,4.05a1.68,1.68,0,0,1-.35.11c-.25,0-.7.09-.73,0a1,1,0,0,1,0-1.07,4.39,4.39,0,0,0,.68-2.32C178.53,77.26,178.51,77,178.51,76.74Zm2,12L181,90C180.19,89.62,180.08,89.35,180.49,88.74Zm.95,1.21a12.75,12.75,0,0,1-1.11-2.05,8.46,8.46,0,0,1-.19-2c.11-.06.13-.08.16-.08,1-.06.9-.24,1,.8s.13,1.91.2,2.86A4.25,4.25,0,0,1,181.44,89.95Zm.12.67c0-.48,0-1,0-1.46-.06-1-.21-2.05-.21-3.08,0-.24,0-.48,0-.72-.07.22-.24.3-.61.31-.22,0-.44,0-.72,0l.18,2.9-.11,0a17.9,17.9,0,0,1-.43-1.86c-.16-1.26-.27-2.54-.35-3.81,0-.52.09-1.05.08-1.58,0-.22-.22-.42-.31-.64a1.8,1.8,0,0,1-.15-.56c-.08-1.33-.18-2.67-.21-4a2.72,2.72,0,0,1,.34-.92l.19,0,.26,3.33h0c0-.59,0-1.19-.1-1.77a9.57,9.57,0,0,1,.15-3.38.87.87,0,0,0,0-.49c-.19-.46.07-.67.49-.92.11.47.23.9.31,1.33.13.69.24,1.39.36,2.08h0l-.26-2.2s0-.06.06-.06c1.13-.25,1.23-.17,1.23,1,0,.11,0,.21,0,.32a3.12,3.12,0,0,1,0,.54c-.08.41-.32.46-1,.42v0l.08,1.63h.08l-.09-1.41.91-.18c.11.73.24,1.43.31,2.13.09,1,.13,2,.19,3,0,.27-.09.39-.37.38a5.24,5.24,0,0,0-.57,0l-.13-1.75h0c0,1.11,0,2.21,0,3.32,0,.75-.06.79-.8.77l-.33,0L179.91,82h0l.16,3.11h0V83.57l.6,0c.69-.07.69-.08.72.64,0,.26,0,.51,0,.77.05-.45.12-.91.17-1.4l.51-.08c0,.47.07.9.06,1.33,0,1.39-.06,2.79-.08,4.18,0,.44,0,.88,0,1.32S182,90.7,181.55,90.62Zm-1-21.71.16,0a10.17,10.17,0,0,1,1,4.13c-.37,0-.67,0-1,0-.08,0-.22-.06-.22-.11-.06-.43-.31-.81-.16-1.32a9.89,9.89,0,0,0,.25-2A4.34,4.34,0,0,0,180.51,68.9Zm1.92,3.82c0,.1-.12.17-.33.17s-.34,0-.35-.28a2.08,2.08,0,0,0-.05-.4c-.08-.34,0-.5.39-.52s.31.27.34.49a1.09,1.09,0,0,1,0,.18A1,1,0,0,1,182.43,72.73Zm.48,6.65c-.39.13-.56.08-.6-.37-.11-1.1-.32-2.19-.41-3.28a15,15,0,0,1,.06-2.21c0-.08.26-.15.41-.23Zm-1.46-8.59a5,5,0,0,0-.87-2.16c-.22-.25.07-1.11.45-1.44a8.8,8.8,0,0,1,1.22,4C181.59,71.35,181.6,71.35,181.46,70.78Zm.71,21.16a1.17,1.17,0,0,1-.23.34l-.11-.07c-.05-.31-.11-.62-.16-.93a.64.64,0,0,1,0-.14c.34-.17.51-.09.49.31A2.84,2.84,0,0,1,182.16,91.94Zm-.84-8.87c0-.44,0-.85,0-1.26s.24-.36.48-.39.38.13.42.36a4.69,4.69,0,0,1,0,.5C182.26,83.12,182.18,83.19,181.32,83.08Zm2.33.54a11.25,11.25,0,0,1,.13,1.54c0,.44-.38.43-.66.44s-.47-.14-.44-.49a8.78,8.78,0,0,0,0-1.49l-.35,3.94h-.13c0-1.31,0-2.63,0-3.94,0-.57,0-1.13.07-1.7,0-.11.13-.22.2-.33.07.11.2.22.21.33,0,.45,0,.91,0,1.42C183.31,82.93,183.55,83,183.65,83.62Zm-.45-.84c0,.06-.1.19-.12.18s-.22-.09-.22-.14c0-.41,0-.81,0-1.22h.21C183.1,82,183.16,82.38,183.2,82.78Zm-.22-1.4c-.36.22-.59.07-.62-.36s0-.72,0-1.08,0-.39.31-.38.5,0,.55.31.08.54.12.8l.09.06C183.25,81,183.17,81.26,183,81.38ZM184,79.61c.05.36-.09.56-.46.57-.07,0-.17,0-.19-.08a5.13,5.13,0,0,1-.34-1c0-.09.21-.33.33-.34a.69.69,0,0,1,.54.2C184,79.15,184,79.4,184,79.61Zm-.75-4.6.42,3.58-.75.14c0-.46-.08-.91-.12-1.35-.11-1.22-.22-2.44-.31-3.67a2.8,2.8,0,0,1,.16-.72c0-.26-.11-.59-.13-.93,0-.1.12-.22.19-.33.07.1.18.19.19.29C183.06,73,183.17,74,183.28,75Zm-.68-3.86c-.09-.14-.23-.27-.25-.41s.18-.3.26-.29.23.17.45.35Zm.22-1.25c-.4.13-.6.13-.73-.35-.22-.8-.57-1.56-.84-2.34a.56.56,0,0,1,0-.43,3.85,3.85,0,0,1,.48-.53A8.62,8.62,0,0,1,182.82,69.9Zm-19.3-9.73a6.85,6.85,0,0,1,1.9-1.1,22.85,22.85,0,0,1,2.42-.7l0,.12c-.62.52-1.23,1-1.86,1.55a2.86,2.86,0,0,0-.44,4.1,3.68,3.68,0,0,0,.4.46l.43.43c-.25-.32-.52-.63-.75-1a2.67,2.67,0,0,1,.3-3.76,6.56,6.56,0,0,1,3.17-2.12,9.19,9.19,0,0,1,5.32.13,10.15,10.15,0,0,1,3.72,2.51c.19.18.36.36.55.55-.39-.43-.78-.86-1.19-1.29-.17-.18-.37-.33-.56-.5l.06-.12c.5.17,1,.31,1.51.51a4.83,4.83,0,0,1,3.21,4.35,2.69,2.69,0,0,1-1,2.35,11.42,11.42,0,0,0-.82.9l.09-.05.25-.15a6.78,6.78,0,0,0-.08.68c0,.67,0,1.33,0,2a2.19,2.19,0,0,1-1,2.1,1.17,1.17,0,0,0-.64,1l.44-.69c.83.94-.26,3.11-2.16,4.23a2.28,2.28,0,0,0-.74-2.72c.58-.29.83-.94,1.61-1.11l-1.33-.44a1.73,1.73,0,0,1,.28-2,1.17,1.17,0,0,0-.87,1.05c0,1.33-1.11,1.49-1.95,2.06a3.71,3.71,0,0,1,.41-1.56,6.8,6.8,0,0,0-.46,1.07c-.2.65-.16.67-.85.57-1-.13-2-.23-3-.35a5.41,5.41,0,0,0-.13-1.46,3.83,3.83,0,0,0-.5-1.16c0-.05-.05-.11-.09-.16.2.62.41,1.24.58,1.86a3.51,3.51,0,0,1,0,.8c-.17-.11-.28-.17-.38-.25-.4-.33-.77-.69-1.19-1a1.16,1.16,0,0,1-.52-1.37,2.49,2.49,0,0,0-.16-1.61L167.08,71h-1.51l0,.13c.45-.11.63.17.83.46s.52.7.79,1.07A2.38,2.38,0,0,0,166,75.15l-.54-.36h0a6.09,6.09,0,0,0,.71.81,1.24,1.24,0,0,1,.3,1.56c-.15.43-.38.83-.52,1.25a1.5,1.5,0,0,0,.12,1.28l.23-1.37-.1-.05-.05,0c.06-.18.15-.36.22-.54l.48-1.3a1.46,1.46,0,0,1-.24,1.42l-.29.5.9-1.27.31,1.92a4.48,4.48,0,0,0-.52-2.58,2.31,2.31,0,0,1,.1-2.34,1,1,0,0,1,1.17-.51c.52.08,1,.28,1.51-.15,0,0,.15,0,.22,0,1.15.13,2.29.25,3.43.4a.77.77,0,0,1,.48.27,1,1,0,0,0,1.08.4,1,1,0,0,1,1.21.63,2.43,2.43,0,0,1-.37,2.6c-.37.5-.69,1-1,1.56l.14.1.26-.32a3.84,3.84,0,0,1,0,2.31,2.69,2.69,0,0,0,.63-1.71,1.85,1.85,0,0,0,0-.5,1.83,1.83,0,0,1,.86-2c.5-.34,1-.73,1.55-1.19a13.61,13.61,0,0,1-.32,2.89,7.54,7.54,0,0,1-2.5,3.05c-.12.11-.27.2-.4.3a4.05,4.05,0,0,1-3.42.83c-.86-.18-1.75-.22-2.62-.34a2.27,2.27,0,0,1-.35-.08l-.33-.1h0a10.81,10.81,0,0,1-4-4.78,4.09,4.09,0,0,1-.06-2.46,13.07,13.07,0,0,1,.36-1.35l.87.89h0l-.47-.94c-.27-.53-.53-1.06-.75-1.61a2.41,2.41,0,0,1,.18-2,13.51,13.51,0,0,0,.52-1.37c.32.22.57.78,1.19.27l.13,1.13a6.22,6.22,0,0,0-1.06-3.79c.47.41.94.82,1.42,1.22a4.42,4.42,0,0,0,.49.31c-.69-.61-1.4-1.21-2.08-1.83a8.3,8.3,0,0,1-2.21-2.79A2.32,2.32,0,0,1,163.51,60.17Zm13.34,12.56a1,1,0,0,1-.18.24c-.42.29-.84.6-1.29.85a.85.85,0,0,1-1.17-.29A3,3,0,0,1,176.86,72.73Zm-1.09-.17.26-1.37h.05l.16,1.33Zm-.05,1.59a1.33,1.33,0,0,1,.48.09,2,2,0,0,1,.07,3.05c.41-1.2.43-2.22-.59-3Zm-6.32-1.2a.77.77,0,0,1-1,.09,5,5,0,0,1-1.72-1.88A6.82,6.82,0,0,1,169.39,72.95Zm-1.62-3.26-.19,1.56C167.08,71.08,167.13,70.44,167.77,69.69Zm.07,3.63c-1,.42-1.12.76-1.3,2.35a1.42,1.42,0,0,1-.4-1.45,3.07,3.07,0,0,1,.4-.81C167,72.75,167.21,72.74,167.84,73.31Zm7.79,4.8v2A2.24,2.24,0,0,1,175.62,78.11ZM164.91,68.3a5.87,5.87,0,0,1,0-.86c0-.09.27-.25.32-.22a2.5,2.5,0,0,1,.44.38Zm.82-.3a2.92,2.92,0,0,1,.27.78.55.55,0,0,1-.37.4c-.36,0-.4-.34-.37-.6a2.12,2.12,0,0,1,.26-.59Zm-1.09-.65v-1l.09,0,.48.62Zm-1.93-3.29c.21.2.28.32,0,.6a13.41,13.41,0,0,0-1.2,1.67c-.2.32-.34.19-.57,0A6.6,6.6,0,0,1,162.71,64.05Zm-1.92,2.68.31.25-.61.95C160,67.73,160.1,67.37,160.79,66.73Zm-.68,1.42c.08.14.22.27.19.36-.17.6-.36,1.2-.55,1.8l-.18.61.65-1.35c.23-.47.48-.55.95-.29a1,1,0,0,1,.18.15c-.05.27-.09.49-.14.7a3.57,3.57,0,0,1-.18.68c-.52,1.14-1.07,2.27-1.59,3.41-.13.29-.23.53-.62.34a1.75,1.75,0,0,0-.53-.05,7,7,0,0,1,.55-1.84c.25-.58.53-1.15.73-1.74l-1,2.07c-.1.22-.23.42-.34.63l-1.08-.84Zm-3.82,5.42c.17-.26.33-.64.7-.51a4,4,0,0,1,1,.61s0,.2,0,.27c-.23.28-.48.54-.7.78l-1.21-.6C156.09,73.93,156.17,73.74,156.28,73.56Zm-1.67,2.83c.32-.48.66-.95,1-1.43.47-.73.84-.76,1.43-.06l-.54.91,1.6-1.9.12.06c-.07.2-.12.4-.2.6a2.76,2.76,0,0,0-.29.72c-.06.89-.72,1.48-1,2.24-.06.15-.14.3-.21.45h0l.93-1.42c.24.62-.19,1-.21,1.57l-.72-.15h0l-.51.78-1-.28.74-1.45-.92,1.08-.82-.7C154.17,77.08,154.39,76.74,154.61,76.4Zm-.88,1.51a.65.65,0,0,1,.54.33A2,2,0,0,1,154,79l-1-.53C153.29,78.27,153.48,78,153.73,77.91ZM145.59,80l3,1.3,0-.08-.46-.51.63-.37a2,2,0,0,1,.07-2.25l2.23,1.36.08-.09-.31-.45c.49-.07.93-.15,1.38-.2s.31.22.32.42a1,1,0,0,1-.07.3h0l0,0c.38-.43.57-.53.83-.3a2.36,2.36,0,0,1,.31.35l-.48.86,0,0h0c.25-.21.52-.42.75-.65a.56.56,0,0,0,.11-.36.79.79,0,0,1,.67-.8c-.25.63-.51,1.27-.76,1.91s-.49,1.32-.75,2c-.35-.6-.76-1.17-.14-1.83a.88.88,0,0,0,.12-.28h0a11.6,11.6,0,0,0-.62,1c-.19.38-.32.8-.48,1.2l.39-.6c.65.42,1,1.16.32,1.72a4.37,4.37,0,0,0-.59.86,1.5,1.5,0,0,1-.31.44.79.79,0,0,1-.5.07.52.52,0,0,1-.06-.38c.2-.57.42-1.13.64-1.7.05-.14.09-.29.13-.43-.36.89-.74,1.78-1.07,2.67-.2.54-.32,1.1-.5,1.65a2.83,2.83,0,0,1-.26.48l-.15,0a3.75,3.75,0,0,1,0-.58,31.14,31.14,0,0,1,2.32-7.14.32.32,0,0,0,0-.09l-.68,1.12-1.7-1.19a.84.84,0,0,0-.27-.17c-.27-.05-.63-.2-.79-.08s-.24.5-.32.78a1.58,1.58,0,0,0,0,.47,4.75,4.75,0,0,1,.72-.36,1.48,1.48,0,0,1,1.33.27c.82.52.86.59.57,1.49l-.87,2.74c-.26-.26-.45-.45-.64-.63-.84-.77-1.67-1.54-2.52-2.29a2.35,2.35,0,0,0-.71-.39c-.45-.17-.76.1-.66.57,0,.23.16.44.2.67C145.68,81.68,145.08,81,145.59,80Zm6.17,5.2c-.33.6-.39,1.31-.94,1.75l-.12-.08.5-1.75Zm-7.29.94c-.11,0-.23.26-.41.48l-1.15-1.15,3.09-.34-1-.32c.54-.83,1-1.61,1.56-2.35.32-.44.74-.47,1.24-.11s1,.75,1.41,1.14a5.66,5.66,0,0,0,.65.63,1,1,0,0,1,.43,1.41,7.26,7.26,0,0,0-.27,1.24c-.06.33-.22.41-.51.29s-.85-.4-1.29-.56A11.06,11.06,0,0,0,144.46,86.16Zm1,4.83a14.54,14.54,0,0,1-1.84-.07l0-.2,2.21-.94-.85,0,.18-2.8c0-.28.16-.39.44-.4a7.78,7.78,0,0,1,3.56.58,6.07,6.07,0,0,0,1.11.33c.08,0,.2-.08.3-.14s.2-.14.37-.26a2.77,2.77,0,0,1-.68,1.65,4.27,4.27,0,0,1-1.18,1A9.63,9.63,0,0,1,145.45,91Z"/><path class="cls-10" d="M185.61,93.13c0-9-9.75-15.58-18.49-15.58s-18.48,6.67-18.48,15.58"/><path d="M85.69,26.51a15.19,15.19,0,0,1,2.86-.25,5,5,0,0,1,3.33.88,2.54,2.54,0,0,1,1,2.14A2.88,2.88,0,0,1,90.84,32v0a3.13,3.13,0,0,1,2.5,3,3.27,3.27,0,0,1-1,2.43c-.85.77-2.21,1.13-4.19,1.13a18.28,18.28,0,0,1-2.43-.14Zm1.57,5h1.42c1.66,0,2.63-.86,2.63-2,0-1.42-1.08-2-2.67-2a6.71,6.71,0,0,0-1.39.11Zm0,5.82a8.34,8.34,0,0,0,1.31.07c1.62,0,3.12-.59,3.12-2.36s-1.42-2.34-3.13-2.34h-1.3Z"/><path d="M97,26.35v7.18c0,2.72,1.21,3.87,2.83,3.87,1.8,0,3-1.19,3-3.87V26.35h1.58v7.08c0,3.73-2,5.26-4.59,5.26s-4.36-1.42-4.36-5.19V26.35Z"/><path d="M106.87,36.58a5.55,5.55,0,0,0,2.81.79c1.6,0,2.54-.85,2.54-2.07s-.65-1.78-2.29-2.41c-2-.7-3.21-1.73-3.21-3.44,0-1.89,1.57-3.29,3.93-3.29a5.52,5.52,0,0,1,2.68.59L112.91,28a4.83,4.83,0,0,0-2.3-.58c-1.66,0-2.29,1-2.29,1.82,0,1.13.74,1.69,2.41,2.34,2.05.79,3.1,1.78,3.1,3.56s-1.39,3.49-4.25,3.49a6.27,6.27,0,0,1-3.1-.77Z"/><path d="M134.45,38.09a7.78,7.78,0,0,1-3.21.58c-3.42,0-6-2.16-6-6.14a6,6,0,0,1,6.34-6.37,6.5,6.5,0,0,1,2.88.54L134.09,28a5.7,5.7,0,0,0-2.45-.5c-2.84,0-4.74,1.82-4.74,5,0,3,1.71,4.88,4.66,4.88a6.27,6.27,0,0,0,2.56-.5Z"/><path d="M136.41,26.51a16.31,16.31,0,0,1,3-.25,5,5,0,0,1,3.51,1,3,3,0,0,1,1,2.3,3.19,3.19,0,0,1-2.29,3.1v.05a3,3,0,0,1,1.78,2.45,19.3,19.3,0,0,0,.94,3.33H142.7a15.75,15.75,0,0,1-.81-2.9c-.36-1.67-1-2.3-2.43-2.36H138v5.26h-1.57ZM138,32h1.6c1.67,0,2.74-.92,2.74-2.3,0-1.57-1.13-2.25-2.79-2.27a6.47,6.47,0,0,0-1.55.14Z"/><path d="M146.72,38.49V26.35h1.71l3.89,6.14a34.34,34.34,0,0,1,2.18,3.94l0,0c-.14-1.62-.18-3.1-.18-5V26.35h1.48V38.49h-1.58l-3.85-6.16a38.65,38.65,0,0,1-2.27-4.05l-.05,0c.09,1.53.13,3,.13,5v5.19Z"/></svg>